<?xml version="1.0" encoding="UTF-8"?>
<svg version="1.1" xmlns="http://www.w3.org/2000/svg" width="512" height="512">
<path d="M0 0 C3.82393375 0.06784399 4.55739862 0.33660505 7.75 2.8125 C9.6875 5.4375 9.6875 5.4375 9.6875 7.4375 C10.739375 7.499375 11.79125 7.56125 12.875 7.625 C38.7722869 11.0598932 62.40912188 32.60435453 81.60839844 48.70117188 C91.77771303 57.19391088 102.14415905 65.41567677 112.6875 73.4375 C153.69112467 104.68647562 153.69112467 104.68647562 166.6875 127.4375 C167.12191406 128.12328125 167.55632812 128.8090625 168.00390625 129.515625 C171.2551977 135.03442229 171.63353323 141.08445074 172.29296875 147.33984375 C172.34926818 150.30330212 172.34926818 150.30330212 173.6875 151.4375 C173.96470477 155.11895303 173.41353579 157.65848272 171.9453125 161.01953125 C170.40752204 164.67364001 168.98347949 168.32981515 167.6796875 172.07421875 C155.6515073 206.50978041 141.19754459 237.028423 115.6875 263.4375 C115.08808594 264.08847656 114.48867188 264.73945313 113.87109375 265.41015625 C108.14056428 271.48537922 101.30742367 276.38645997 94.6875 281.4375 C93.94806152 282.00533203 93.20862305 282.57316406 92.44677734 283.15820312 C80.31024714 292.46245443 67.86763349 301.22071081 55.18115234 309.75634766 C49.72956096 313.43166176 44.31900199 317.16690849 38.90917969 320.90332031 C37.29849357 322.01557872 35.68706943 323.12676862 34.07519531 324.23730469 C16.84103352 336.1190197 -0.28443433 348.08006506 -16.41577148 361.44018555 C-20.99244408 365.23027056 -23.18519096 366.52292023 -29.14453125 366.9609375 C-32.72090493 366.09745268 -34.04792676 364.30162533 -36.3125 361.4375 C-37.76593676 358.21418584 -38.72975903 354.8993101 -39.6875 351.5 C-39.97931152 350.49783447 -40.27112305 349.49566895 -40.57177734 348.46313477 C-45.82277112 330.02003757 -49.99091742 311.33856816 -53.1875 292.4375 C-53.39068848 291.2405249 -53.59387695 290.0435498 -53.80322266 288.81030273 C-55.11032113 280.70346298 -55.85312395 272.6346373 -56.3125 264.4375 C-56.94849121 264.38779053 -57.58448242 264.33808105 -58.23974609 264.28686523 C-64.6374813 263.75018101 -70.964323 262.95753023 -77.31616211 262.02832031 C-122.17332005 255.48406832 -167.30536307 254.19699636 -211.3125 266.4375 C-212.03824219 266.63569336 -212.76398438 266.83388672 -213.51171875 267.03808594 C-221.77509764 269.35133721 -229.43708952 272.73870501 -237.1875 276.375 C-238.05600586 276.78202148 -238.92451172 277.18904297 -239.81933594 277.60839844 C-244.96548237 280.09566967 -249.66047199 282.87591237 -254.30908203 286.20532227 C-256.3744266 287.4755872 -257.91264379 288.12318201 -260.3125 288.4375 C-263 287.1875 -263 287.1875 -265.3125 285.4375 C-265.8075 283.9525 -265.8075 283.9525 -266.3125 282.4375 C-268.96177563 281.40638124 -271.53101301 280.5520478 -274.25 279.75 C-280.90780589 277.66117183 -287.32310357 275.30141024 -293.6875 272.4375 C-294.43467285 272.10153809 -295.1818457 271.76557617 -295.95166016 271.41943359 C-301.36247598 268.94670392 -306.630564 266.26079778 -311.83203125 263.37109375 C-314.81674387 262.24771373 -316.30767505 262.4695027 -319.3125 263.4375 C-320.5190625 264.2109375 -320.5190625 264.2109375 -321.75 265 C-324.97969913 266.81178244 -326.64875195 266.95042473 -330.3125 266.4375 C-336.71197438 263.63855125 -336.71197438 263.63855125 -338.3125 260.4375 C-339.16364884 252.88892744 -336.59722016 247.91068311 -333.125 241.3125 C-332.58762207 240.26787598 -332.05024414 239.22325195 -331.49658203 238.14697266 C-323.18230776 222.18462428 -314.08521779 206.85723162 -303.3125 192.4375 C-302.04132965 190.64607243 -300.77048522 188.85441353 -299.5 187.0625 C-296.04642595 182.33138433 -292.42532037 177.74697022 -288.75 173.1875 C-288.21979248 172.52572754 -287.68958496 171.86395508 -287.14331055 171.18212891 C-283.93910301 167.24388092 -280.57913185 163.59201795 -276.92871094 160.0625 C-275.22210407 158.34661249 -273.67312057 156.54670803 -272.125 154.6875 C-240.06476147 117.73311001 -192.62615332 95.17453226 -146.3125 82.4375 C-145.37341797 82.1787207 -144.43433594 81.91994141 -143.46679688 81.65332031 C-112.78302659 73.37939866 -81.09870025 69.74958822 -49.54431152 66.65753174 C-45.80218976 66.28860025 -42.06132471 65.90733204 -38.3203125 65.52734375 C-31.31894397 64.81807504 -24.31628962 64.12249035 -17.3125 63.4375 C-17.17150879 62.12668457 -17.03051758 60.81586914 -16.88525391 59.46533203 C-16.35677453 54.56330081 -15.82231888 49.66193592 -15.28613281 44.76074219 C-15.05568164 42.64665926 -14.82681258 40.53240321 -14.59960938 38.41796875 C-14.27117493 35.36410462 -13.93689753 32.31092569 -13.6015625 29.2578125 C-13.50251617 28.32510529 -13.40346985 27.39239807 -13.30142212 26.431427 C-10.39956057 0.2971303 -10.39956057 0.2971303 0 0 Z M6.6875 28.4375 C5.79361831 33.18034921 4.92192372 37.92659943 4.0690918 42.67700195 C3.7770594 44.28679244 3.4793665 45.89556815 3.17553711 47.50317383 C1.300327 57.44953622 0.32467543 66.30052358 1.6875 76.4375 C1.6875 77.0975 1.6875 77.7575 1.6875 78.4375 C0.8521875 78.8396875 0.8521875 78.8396875 0 79.25 C-2.37275404 80.39513494 -2.37275404 80.39513494 -4.5625 82.0625 C-7.58387584 83.57318792 -9.53423394 83.48842806 -12.84814453 83.34960938 C-15.92355628 83.45929317 -18.68588642 84.13178573 -21.6796875 84.84375 C-29.10063443 86.482272 -36.43508989 87.30477754 -44 87.9375 C-45.38533033 88.06115853 -46.77058265 88.18569357 -48.15576172 88.31103516 C-54.74030819 88.90085976 -61.32783907 89.44433723 -67.91946411 89.94869995 C-114.61004606 93.52186302 -160.78673256 101.61181216 -201.3125 126.4375 C-201.99231934 126.85225586 -202.67213867 127.26701172 -203.37255859 127.69433594 C-218.18237821 136.81282112 -232.07311679 147.07301992 -244.734375 159.0078125 C-246.98619201 161.12997944 -249.2781351 163.17206258 -251.625 165.1875 C-257.26270966 170.09137555 -262.39156803 175.38040367 -267.2578125 181.046875 C-268.8000053 182.84121339 -270.36041375 184.61992209 -271.9296875 186.390625 C-287.98496102 204.61707429 -301.45156302 224.87811483 -314.3125 245.4375 C-310.44836496 245.4375 -308.98970342 244.15610144 -305.75 242.0625 C-261.1118245 213.86896209 -210.49876309 198.10099865 -158.3125 191.4375 C-157.15347168 191.28651855 -155.99444336 191.13553711 -154.80029297 190.97998047 C-105.73824013 184.83977216 -53.21679723 186.49382234 -5.3125 199.4375 C-3.9798023 199.77336566 -2.64679669 200.10804403 -1.3125 200.4375 C-0.40329602 205.8018035 -0.24548748 208.39915698 -2.3125 213.4375 C-1.84975281 218.08169775 -0.83018242 222.35029444 0.5 226.8125 C5.11053778 243.21545666 6.91945583 260.52476165 8.6875 277.4375 C11.99454253 275.51389755 15.07376804 273.47365401 18.1015625 271.13671875 C18.93494141 270.49669922 19.76832031 269.85667969 20.62695312 269.19726562 C21.51318359 268.51341797 22.39941406 267.82957031 23.3125 267.125 C30.2208797 261.82522431 37.1611132 256.57981168 44.1875 251.4375 C59.43540309 240.25325031 74.43940467 228.79571314 89.04345703 216.78173828 C91.27940541 214.95353339 93.5454383 213.16439878 95.8125 211.375 C97.44072794 210.06650659 99.06554419 208.75376009 100.6875 207.4375 C101.65945313 206.65246094 102.63140625 205.86742187 103.6328125 205.05859375 C133.31488565 181.45426424 133.31488565 181.45426424 150.6875 149.4375 C150.83874579 142.32808871 148.72420239 138.04744774 144.3125 132.625 C143.77230225 131.93631836 143.23210449 131.24763672 142.67553711 130.53808594 C118.51715624 100.12400048 86.38320146 80.08887985 53.85693359 59.65966797 C38.8938307 50.25348195 23.9304744 40.78788992 10.25390625 29.546875 C8.73538915 28.24484638 8.73538915 28.24484638 6.6875 28.4375 Z M138.6875 198.4375 C137.83929688 199.17613281 136.99109375 199.91476562 136.1171875 200.67578125 C128.38525171 207.37553034 120.5075652 213.8233107 112.41992188 220.08740234 C110.71298614 221.41763834 109.01878055 222.76243366 107.328125 224.11328125 C99.51915088 230.34056219 91.50777297 236.23621603 83.390625 242.0546875 C77.04321936 246.60780154 70.76542282 251.2544713 64.484375 255.8984375 C61.27492834 258.27080807 58.05579405 260.62904899 54.828125 262.9765625 C47.17008468 268.55720499 39.60178407 274.20704691 32.25 280.1875 C31.59104736 280.71827148 30.93209473 281.24904297 30.25317383 281.79589844 C27.23906877 284.2473047 24.34145489 286.72819447 21.58984375 289.47265625 C15.30596886 295.59130361 10.68150552 297.33441247 2.1171875 297.38793945 C-1.19573197 297.20109278 -3.05533159 296.65547665 -5.59375 294.50390625 C-9.79205642 287.01374594 -10.77112048 279.23783092 -10.97265625 270.77734375 C-11.00806015 269.78859756 -11.04346405 268.79985138 -11.0799408 267.78114319 C-11.19071131 264.64603042 -11.28418944 261.51074913 -11.375 258.375 C-11.50271726 254.25877231 -11.63904385 250.14295985 -11.78515625 246.02734375 C-11.83755966 244.54202652 -11.83755966 244.54202652 -11.89102173 243.02670288 C-12.23382713 234.42945016 -13.11502344 225.95425394 -14.3125 217.4375 C-30.29227405 216.26681288 -46.27590341 215.15192678 -62.26211548 214.07290649 C-64.17947002 213.94319469 -66.09676977 213.81266988 -68.01400757 213.6812439 C-148.88608817 208.14534421 -225.11673506 216.77998411 -298.3125 253.4375 C-297.44863263 255.71230726 -297.44863263 255.71230726 -294.72729492 256.50317383 C-293.02730347 257.06814575 -293.02730347 257.06814575 -291.29296875 257.64453125 C-290.37225334 257.95543953 -290.37225334 257.95543953 -289.43293762 258.27262878 C-287.45757323 258.93879467 -285.47912789 259.59510786 -283.5 260.25 C-259.73517864 268.15571424 -259.73517864 268.15571424 -253.3125 272.4375 C-252.5596875 271.9528125 -251.806875 271.468125 -251.03125 270.96875 C-230.09520714 257.75668412 -208.63855421 250.01897642 -184.3125 245.4375 C-183.4349707 245.27088867 -182.55744141 245.10427734 -181.65332031 244.93261719 C-150.70779877 239.41519862 -116.25023741 240.45853859 -85.3125 245.4375 C-84.28286133 245.59798828 -83.25322266 245.75847656 -82.19238281 245.92382812 C-75.54111754 246.97435315 -68.92179143 248.15018273 -62.3125 249.4375 C-61.5817627 249.57687988 -60.85102539 249.71625977 -60.09814453 249.85986328 C-52.19441732 251.39274188 -52.19441732 251.39274188 -49.3125 252.4375 C-48.6525 253.4275 -47.9925 254.4175 -47.3125 255.4375 C-46.6525 255.4375 -45.9925 255.4375 -45.3125 255.4375 C-45.08554443 256.2881604 -45.08554443 256.2881604 -44.85400391 257.15600586 C-43.20013704 263.28982705 -41.47124018 269.39999905 -39.7109375 275.50390625 C-34.26950332 294.38662906 -28.92563159 313.28046825 -23.99169922 332.30297852 C-23.72825462 333.31516197 -23.72825462 333.31516197 -23.45948792 334.34779358 C-22.99117647 336.14985898 -22.52633519 337.9528252 -22.06176758 339.75585938 C-21.41974555 342.38136455 -21.41974555 342.38136455 -20.3125 344.4375 C-17.32742571 343.04881151 -14.82245962 341.42310734 -12.21484375 339.41796875 C-11.02858398 338.51353027 -11.02858398 338.51353027 -9.81835938 337.59082031 C-8.97080078 336.94209961 -8.12324219 336.29337891 -7.25 335.625 C1.62153175 328.90889817 10.66480257 322.53139958 19.89355469 316.31884766 C58.94093986 290.50700255 58.94093986 290.50700255 94.6875 260.4375 C95.2870752 259.87047363 95.88665039 259.30344727 96.50439453 258.71923828 C113.57238616 242.53154421 130.28205762 222.27034999 139.6875 200.4375 C139.3575 199.7775 139.0275 199.1175 138.6875 198.4375 Z " fill="#000000" transform="translate(338.3125,72.5625)"/>
</svg>
