<?xml version="1.0" encoding="UTF-8"?>
<svg version="1.1" xmlns="http://www.w3.org/2000/svg" width="512" height="512">
<path d="M0 0 C0.99660645 0.19335938 1.99321289 0.38671875 3.02001953 0.5859375 C41.63868568 8.21664208 77.76515454 23.93797736 109 48 C109.81210937 48.62003906 110.62421875 49.24007812 111.4609375 49.87890625 C128.52608372 63.20264029 144.88644896 78.81925144 157.72607422 96.28173828 C159.02250666 98.03035682 160.35288718 99.74828803 161.69140625 101.46484375 C169.55567241 111.6795598 175.9411092 122.63725258 182 134 C182.66346436 135.24064209 182.66346436 135.24064209 183.34033203 136.50634766 C194.85704842 158.40949262 202.5280584 182.70059889 207 207 C207.16081055 207.80066895 207.32162109 208.60133789 207.48730469 209.42626953 C212.977321 237.49327044 212.74943715 271.00184244 207 299 C206.70198486 300.51883789 206.70198486 300.51883789 206.39794922 302.06835938 C196.75049569 350.31285355 174.15684884 394.53605134 140 430 C139.36787598 430.65935547 138.73575195 431.31871094 138.08447266 431.99804688 C128.94133624 441.48494274 119.66170051 450.25327496 109 458 C108.34563965 458.48275391 107.6912793 458.96550781 107.01708984 459.46289062 C75.072017 482.96722285 39.05018654 498.8133968 0 506 C-0.80066895 506.16081055 -1.60133789 506.32162109 -2.42626953 506.48730469 C-30.42216536 511.96341256 -64.08322812 511.84707699 -92 506 C-93.46228027 505.70198486 -93.46228027 505.70198486 -94.95410156 505.39794922 C-143.3359774 495.27732806 -187.32428269 473.3608123 -223 439 C-223.65935547 438.36787598 -224.31871094 437.73575195 -224.99804688 437.08447266 C-233.94547315 428.46125804 -242.35917251 419.7375903 -249.72607422 409.71826172 C-251.02250666 407.96964318 -252.35288718 406.25171197 -253.69140625 404.53515625 C-261.55567241 394.3204402 -267.9411092 383.36274742 -274 372 C-274.66346436 370.75935791 -274.66346436 370.75935791 -275.34033203 369.49365234 C-286.85704842 347.59050738 -294.5280584 323.29940111 -299 299 C-299.24121582 297.79899658 -299.24121582 297.79899658 -299.48730469 296.57373047 C-304.9794441 268.49587547 -304.73396692 235.01022065 -299 207 C-298.70996094 205.50509033 -298.70996094 205.50509033 -298.4140625 203.97998047 C-288.85036476 155.57851943 -266.43262235 111.38440229 -232 76 C-231.35659668 75.33081543 -230.71319336 74.66163086 -230.05029297 73.97216797 C-221.43592401 65.03508793 -212.72685391 56.63293336 -202.71826172 49.27392578 C-200.96964318 47.97749334 -199.25171197 46.64711282 -197.53515625 45.30859375 C-187.3204402 37.44432759 -176.36274742 31.0588908 -165 25 C-163.75935791 24.33653564 -163.75935791 24.33653564 -162.49365234 23.65966797 C-140.59050738 12.14295158 -116.29940111 4.4719416 -92 0 C-91.19933105 -0.16081055 -90.39866211 -0.32162109 -89.57373047 -0.48730469 C-61.49587547 -5.9794441 -28.01022065 -5.73396692 0 0 Z M-201 92 C-201.86238281 92.82371094 -201.86238281 92.82371094 -202.7421875 93.6640625 C-211.31832087 101.86569223 -219.05764117 110.36979744 -226 120 C-226.47646973 120.65919434 -226.95293945 121.31838867 -227.44384766 121.99755859 C-249.51275273 152.92311157 -262.59157912 187.54126962 -268 225 C-268.1038501 225.67369629 -268.2077002 226.34739258 -268.31469727 227.04150391 C-275.94490487 283.67398989 -258.45326963 342.43227607 -224.64697266 387.81640625 C-222.21431834 390.98342842 -219.6464382 394.01078504 -217 397 C-216.00033203 398.16208984 -216.00033203 398.16208984 -214.98046875 399.34765625 C-204.08513189 411.77925582 -192.43829941 423.34448783 -179 433 C-178.34225586 433.47501953 -177.68451172 433.95003906 -177.00683594 434.43945312 C-146.08026325 456.5111679 -111.4612612 469.59121371 -74 475 C-73.32630371 475.1038501 -72.65260742 475.2077002 -71.95849609 475.31469727 C-15.32601011 482.94490487 43.43227607 465.45326963 88.81640625 431.64697266 C91.98342842 429.21431834 95.01078504 426.6464382 98 424 C99.16208984 423.00033203 99.16208984 423.00033203 100.34765625 421.98046875 C112.77925582 411.08513189 124.34448783 399.43829941 134 386 C134.47501953 385.34225586 134.95003906 384.68451172 135.43945312 384.00683594 C157.5111679 353.08026325 170.59121371 318.4612612 176 281 C176.1038501 280.32630371 176.2077002 279.65260742 176.31469727 278.95849609 C184.01728921 221.7887633 166.16241869 162.132317 131.49609375 116.6640625 C129.39576296 114.04146698 127.23627521 111.50733887 125 109 C123.74509766 107.58267578 123.74509766 107.58267578 122.46484375 106.13671875 C119.69334593 103.04314159 116.859891 100.01184323 114 97 C113.49452637 96.46584473 112.98905273 95.93168945 112.46826172 95.38134766 C104.56985348 87.09380673 96.27832306 79.71046913 87 73 C86.33935547 72.52208008 85.67871094 72.04416016 84.99804688 71.55175781 C54.07351319 49.48566298 19.45619999 36.40805554 -18 31 C-18.67369629 30.8961499 -19.34739258 30.7922998 -20.04150391 30.68530273 C-85.67411848 21.84248988 -153.90766037 46.25959357 -201 92 Z " fill="#000000" transform="translate(302,3)"/>
<path d="M0 0 C1.0022612 -0.0071553 2.0045224 -0.01431061 3.03715515 -0.02168274 C4.13588959 -0.02437164 5.23462402 -0.02706055 6.36665344 -0.02983093 C7.52466965 -0.03640213 8.68268585 -0.04297333 9.87579346 -0.04974365 C13.71690432 -0.06949115 17.55797604 -0.08114287 21.39912415 -0.09111023 C22.7102952 -0.09518576 24.02146626 -0.09926128 25.37236977 -0.10346031 C31.59699771 -0.12250913 37.82161383 -0.13673926 44.0462653 -0.14507228 C51.22016894 -0.15483569 58.39376328 -0.18113263 65.56755799 -0.22157317 C71.11929252 -0.25179021 76.67093869 -0.26654653 82.22275382 -0.26985329 C85.53524453 -0.27219799 88.84733024 -0.28307102 92.15974998 -0.30631447 C95.86047823 -0.33066738 99.5604008 -0.32974719 103.26118469 -0.32279968 C104.34979797 -0.33560974 105.43841125 -0.3484198 106.56001282 -0.36161804 C112.86095603 -0.31856973 117.95611814 0.32829429 123.1374054 4.14717102 C126.76255987 8.70185228 128.25823212 12.25760277 128.27784729 18.02322388 C128.28355743 19.0283754 128.28926758 20.03352692 128.29515076 21.06913757 C128.29682755 22.72195236 128.29682755 22.72195236 128.29853821 24.40815735 C128.30350311 25.56938614 128.30846802 26.73061493 128.31358337 27.92703247 C128.32821708 31.77776171 128.33500899 35.62844976 128.3405304 39.47920227 C128.3448279 41.47592461 128.34912591 43.47264695 128.3535049 45.46936911 C128.3653157 51.03382169 128.37285313 56.59826429 128.3763001 62.16272813 C128.38077928 69.35357525 128.39832166 76.54423213 128.42730069 83.73502141 C128.44893531 89.29691703 128.45900534 94.8587592 128.46034122 100.42069644 C128.46138805 103.74087438 128.46872002 107.06083292 128.48516083 110.38097572 C128.50220164 114.08679771 128.50034554 117.7921559 128.49385071 121.4980011 C128.50306549 122.59380493 128.51228027 123.68960876 128.52177429 124.81861877 C128.48606377 131.31809458 127.87455861 135.84179866 123.59443665 141.01045227 C119.11500647 144.95788362 116.14674955 146.14717102 110.1374054 146.14717102 C105.11052127 145.20995534 101.76461592 143.77438154 98.1374054 140.14717102 C95.36416405 135.57205315 94.69409884 131.73938333 94.70503235 126.48945618 C94.68974487 125.37623489 94.68974487 125.37623489 94.67414856 124.24052429 C94.64413406 121.80568276 94.6347706 119.37123538 94.62568665 116.93623352 C94.60883134 115.24085698 94.59067996 113.54549287 94.57128906 111.85014343 C94.5238752 107.40162542 94.49401026 102.95315782 94.46784973 98.50447083 C94.43800063 93.95948838 94.39148527 89.41467949 94.34638977 84.86982727 C94.26045474 75.96236614 94.19306597 67.05486919 94.1374054 58.14717102 C92.99522505 59.29488212 92.99522505 59.29488212 91.82997036 60.4657793 C73.30454774 79.0799869 54.76760879 97.6826644 36.21852779 116.27329731 C27.24861173 125.26384148 18.28247947 134.25809937 9.32514954 143.26118469 C1.51824173 151.10795232 -6.29566392 158.94767134 -14.11806482 166.77899522 C-18.25999206 170.92613856 -22.39832197 175.07673401 -26.5282917 179.23578835 C-30.41590426 183.15055608 -34.31280731 187.05582829 -38.21702576 190.9540329 C-39.64794458 192.38605189 -41.0754405 193.82150066 -42.49921989 195.26061821 C-44.44507301 197.22639969 -46.40291567 199.17941956 -48.36419678 201.12979126 C-48.92355818 201.70080403 -49.48291959 202.2718168 -50.05923134 202.86013299 C-54.59681213 207.32990766 -58.84869279 209.76358352 -65.3000946 210.58467102 C-71.36681855 209.83963475 -75.47290896 207.89318632 -79.3000946 203.08467102 C-81.72104106 198.53329168 -82.28382983 195.28624072 -81.8625946 190.14717102 C-79.6948316 184.21561284 -76.21854605 179.93009225 -71.76292419 175.56648254 C-71.15514075 174.9552814 -70.5473573 174.34408025 -69.92115617 173.71435785 C-67.89765326 171.68430633 -65.86026421 169.66881437 -63.82255554 167.6530304 C-62.36299651 166.19460049 -60.90431936 164.73528757 -59.44645691 163.27516174 C-55.49704764 159.32460695 -51.53544571 155.38648878 -47.57151318 151.45051384 C-43.42702212 147.33106306 -39.29388954 143.20024795 -35.15953064 139.07063293 C-27.33364697 131.25717126 -19.49762469 123.45396032 -11.65789437 115.65439463 C-2.7310877 106.77232962 6.18433542 97.87887565 15.09882784 88.98445415 C33.43239572 70.69267303 51.78018909 52.41521684 70.1374054 34.14717102 C68.73585205 34.14503349 68.73585205 34.14503349 67.3059845 34.14285278 C58.47855372 34.1261465 49.65158179 34.08326245 40.82439423 34.01508045 C36.28673764 33.98086351 31.74941583 33.95570875 27.21162415 33.95161438 C22.82817127 33.94732 18.44547292 33.91876366 14.06225586 33.87373924 C12.39426069 33.86080048 10.72617506 33.85644369 9.05813599 33.86101723 C-7.1477752 33.8950867 -7.1477752 33.8950867 -13.8625946 28.14717102 C-17.34249395 24.10599758 -17.98828033 19.36312874 -17.8625946 14.14717102 C-16.22057154 8.09221097 -12.94631365 4.59023528 -7.8625946 1.14717102 C-4.93807584 0.17233143 -3.04597566 0.01493168 0 0 Z " fill="#000000" transform="translate(232.8625946044922,150.8528289794922)"/>
</svg>
